# xmcd
# 
# Track frame offsets:
#     150
#     13464
#     25613
#     38344
#     48984
#     62023
#     74339
#     88203
#     101470
#     113920
#     124789
#     169776
#     188082
#     201058
#     212188
#     222270
#     235772
#     248328
#     261485
#     275035
#     295355
# 
# Disc length: 4111
# 
# Revision: 6
# Processed by: cddbd v1.5.2PL0 Copyright (c) Steve Scherf et al.
# Submitted via: fre:ac v1.0.31
# 
DISCID=36100d15
DTITLE=Various Artist - Confessin' The Blues [CD2]
DYEAR=2018
DGENRE=Blues
TTITLE0=Howlin' Wolf - Just Like Treat You
TTITLE1=Little Walter - I Got To Go
TTITLE2=Chuck Berry - Carol
TTITLE3=Bo Diddley - Mona
TTITLE4=Muddy Waters - I Just Want To Make Love To You
TTITLE5=Elmore James - Blues Before Sunrise
TTITLE6=Eddie Taylor - Bad Boy
TTITLE7=Boy Blue - Boogie Children
TTITLE8=Jimmy Reed - Little Rain
TTITLE9=Robert Johnson - Stop Breakin' Down Blues
TTITLE10=Rev. Robert Wilkins - The Prodigal Son
TTITLE11=Lightnin' Slim - Hoodoo Blues
TTITLE12=Billy Boy Arnold - Don't Stay Out All Night
TTITLE13=Bo Diddley - Crawdad
TTITLE14=Dale Hawkins - Susie Q
TTITLE15=Amos Milburn - Down The Road Apiece
TTITLE16=Howlin' Wolf - Little Baby
TTITLE17=Little Walter - Blue And Lonesome
TTITLE18=B.B. King - Rock Me Baby
TTITLE19=Buddy Guy - Damn Right, I've Got The Blues
TTITLE20=Muddy Waters - Mannish Boy
EXTD=
EXTT0=
EXTT1=
EXTT2=
EXTT3=
EXTT4=
EXTT5=
EXTT6=
EXTT7=
EXTT8=
EXTT9=
EXTT10=
EXTT11=
EXTT12=
EXTT13=
EXTT14=
EXTT15=
EXTT16=
EXTT17=
EXTT18=
EXTT19=
EXTT20=
PLAYORDER=
